<svg aria-roledescription="er" role="graphics-document document" viewBox="0 0 407.81573486328125 606" style="max-width: 407.81573486328125px;" xmlns="http://www.w3.org/2000/svg" width="100%" id="mermaidSvgChart"><style>#mermaidSvgChart{font-family:"trebuchet ms",verdana,arial,sans-serif;font-size:16px;fill:#ccc;}#mermaidSvgChart .error-icon{fill:#a44141;}#mermaidSvgChart .error-text{fill:#ddd;stroke:#ddd;}#mermaidSvgChart .edge-thickness-normal{stroke-width:2px;}#mermaidSvgChart .edge-thickness-thick{stroke-width:3.5px;}#mermaidSvgChart .edge-pattern-solid{stroke-dasharray:0;}#mermaidSvgChart .edge-pattern-dashed{stroke-dasharray:3;}#mermaidSvgChart .edge-pattern-dotted{stroke-dasharray:2;}#mermaidSvgChart .marker{fill:lightgrey;stroke:lightgrey;}#mermaidSvgChart .marker.cross{stroke:lightgrey;}#mermaidSvgChart svg{font-family:"trebuchet ms",verdana,arial,sans-serif;font-size:16px;}#mermaidSvgChart .entityBox{fill:#1f2020;stroke:#81B1DB;}#mermaidSvgChart .attributeBoxOdd{fill:hsl(0, 0%, 32%);stroke:#81B1DB;}#mermaidSvgChart .attributeBoxEven{fill:hsl(0, 0%, 22%);stroke:#81B1DB;}#mermaidSvgChart .relationshipLabelBox{fill:hsl(20, 1.5873015873%, 12.3529411765%);opacity:0.7;background-color:hsl(20, 1.5873015873%, 12.3529411765%);}#mermaidSvgChart .relationshipLabelBox rect{opacity:0.5;}#mermaidSvgChart .relationshipLine{stroke:lightgrey;}#mermaidSvgChart .entityTitleText{text-anchor:middle;font-size:18px;fill:#ccc;}#mermaidSvgChart :root{--mermaid-font-family:"trebuchet ms",verdana,arial,sans-serif;}</style><g></g><defs><marker orient="auto" markerHeight="18" markerWidth="18" refY="9" refX="0" id="ONLY_ONE_START"><path d="M9,0 L9,18 M15,0 L15,18" fill="none" stroke="gray"></path></marker></defs><defs><marker orient="auto" markerHeight="18" markerWidth="18" refY="9" refX="18" id="ONLY_ONE_END"><path d="M3,0 L3,18 M9,0 L9,18" fill="none" stroke="gray"></path></marker></defs><defs><marker orient="auto" markerHeight="18" markerWidth="30" refY="9" refX="0" id="ZERO_OR_ONE_START"><circle r="6" cy="9" cx="21" fill="white" stroke="gray"></circle><path d="M9,0 L9,18" fill="none" stroke="gray"></path></marker></defs><defs><marker orient="auto" markerHeight="18" markerWidth="30" refY="9" refX="30" id="ZERO_OR_ONE_END"><circle r="6" cy="9" cx="9" fill="white" stroke="gray"></circle><path d="M21,0 L21,18" fill="none" stroke="gray"></path></marker></defs><defs><marker orient="auto" markerHeight="36" markerWidth="45" refY="18" refX="18" id="ONE_OR_MORE_START"><path d="M0,18 Q 18,0 36,18 Q 18,36 0,18 M42,9 L42,27" fill="none" stroke="gray"></path></marker></defs><defs><marker orient="auto" markerHeight="36" markerWidth="45" refY="18" refX="27" id="ONE_OR_MORE_END"><path d="M3,9 L3,27 M9,18 Q27,0 45,18 Q27,36 9,18" fill="none" stroke="gray"></path></marker></defs><defs><marker orient="auto" markerHeight="36" markerWidth="57" refY="18" refX="18" id="ZERO_OR_MORE_START"><circle r="6" cy="18" cx="48" fill="white" stroke="gray"></circle><path d="M0,18 Q18,0 36,18 Q18,36 0,18" fill="none" stroke="gray"></path></marker></defs><defs><marker orient="auto" markerHeight="36" markerWidth="57" refY="18" refX="39" id="ZERO_OR_MORE_END"><circle r="6" cy="18" cx="9" fill="white" stroke="gray"></circle><path d="M21,18 Q39,0 57,18 Q39,36 21,18" fill="none" stroke="gray"></path></marker></defs><path style="stroke: gray; fill: none;" marker-start="url(#ONLY_ONE_START)" marker-end="url(#ONE_OR_MORE_END)" d="M87.289,399L87.289,407.333C87.289,415.667,87.289,432.333,87.289,449C87.289,465.667,87.289,482.333,87.289,490.667L87.289,499" class="er relationshipLine"></path><path style="stroke: gray; fill: none;" marker-start="url(#ONLY_ONE_START)" marker-end="url(#ONE_OR_MORE_END)" d="M136.905,166.818L128.636,175.682C120.366,184.546,103.828,202.273,95.559,219.47C87.289,236.667,87.289,253.333,87.289,261.667L87.289,270" class="er relationshipLine"></path><path style="stroke: gray; fill: none;" marker-start="url(#ONLY_ONE_START)" marker-end="url(#ONE_OR_MORE_END)" d="M270.911,166.818L279.18,175.682C287.449,184.546,303.988,202.273,312.257,222.97C320.526,243.667,320.526,267.333,320.526,279.167L320.526,291" class="er relationshipLine"></path><g transform="translate(20,499 )" id="entity-dbogroups-3d82084e-0296-5443-bc81-62df6cc01998"><rect height="87" width="134.5785369873047" y="0" x="0" class="er entityBox"></rect><text style="dominant-baseline: middle; text-anchor: middle; font-size: 12px;" transform="translate(67.28926849365234,12)" y="0" x="0" id="text-entity-dbogroups-3d82084e-0296-5443-bc81-62df6cc01998" class="er entityLabel">dbo.groups</text><rect height="21" width="66.15037536621094" y="24" x="0" class="er attributeBoxOdd"></rect><text style="dominant-baseline: middle; font-size: 10.2px;" transform="translate(5,34.5)" y="0" x="0" id="text-entity-dbogroups-3d82084e-0296-5443-bc81-62df6cc01998-attr-1-type" class="er entityLabel">int</text><rect height="21" width="43.624847412109375" y="24" x="66.15037536621094" class="er attributeBoxOdd"></rect><text style="dominant-baseline: middle; font-size: 10.2px;" transform="translate(71.15037536621094,34.5)" y="0" x="0" id="text-entity-dbogroups-3d82084e-0296-5443-bc81-62df6cc01998-attr-1-name" class="er entityLabel">id</text><rect height="21" width="24.803314208984375" y="24" x="109.77522277832031" class="er attributeBoxOdd"></rect><text style="dominant-baseline: middle; font-size: 10.2px;" transform="translate(114.77522277832031,34.5)" y="0" x="0" id="text-entity-dbogroups-3d82084e-0296-5443-bc81-62df6cc01998-attr-1-comment" class="er entityLabel">PK</text><rect height="21" width="66.15037536621094" y="45" x="0" class="er attributeBoxEven"></rect><text style="dominant-baseline: middle; font-size: 10.2px;" transform="translate(5,55.5)" y="0" x="0" id="text-entity-dbogroups-3d82084e-0296-5443-bc81-62df6cc01998-attr-2-type" class="er entityLabel">nvarchar(-1)</text><rect height="21" width="43.624847412109375" y="45" x="66.15037536621094" class="er attributeBoxEven"></rect><text style="dominant-baseline: middle; font-size: 10.2px;" transform="translate(71.15037536621094,55.5)" y="0" x="0" id="text-entity-dbogroups-3d82084e-0296-5443-bc81-62df6cc01998-attr-2-name" class="er entityLabel">title</text><rect height="21" width="24.803314208984375" y="45" x="109.77522277832031" class="er attributeBoxEven"></rect><text style="dominant-baseline: middle; font-size: 10.2px;" transform="translate(114.77522277832031,55.5)" y="0" x="0" id="text-entity-dbogroups-3d82084e-0296-5443-bc81-62df6cc01998-attr-2-comment" class="er entityLabel"></text><rect height="21" width="66.15037536621094" y="66" x="0" class="er attributeBoxOdd"></rect><text style="dominant-baseline: middle; font-size: 10.2px;" transform="translate(5,76.5)" y="0" x="0" id="text-entity-dbogroups-3d82084e-0296-5443-bc81-62df6cc01998-attr-3-type" class="er entityLabel">nvarchar(-1)</text><rect height="21" width="43.624847412109375" y="66" x="66.15037536621094" class="er attributeBoxOdd"></rect><text style="dominant-baseline: middle; font-size: 10.2px;" transform="translate(71.15037536621094,76.5)" y="0" x="0" id="text-entity-dbogroups-3d82084e-0296-5443-bc81-62df6cc01998-attr-3-name" class="er entityLabel">content</text><rect height="21" width="24.803314208984375" y="66" x="109.77522277832031" class="er attributeBoxOdd"></rect><text style="dominant-baseline: middle; font-size: 10.2px;" transform="translate(114.77522277832031,76.5)" y="0" x="0" id="text-entity-dbogroups-3d82084e-0296-5443-bc81-62df6cc01998-attr-3-comment" class="er entityLabel"></text></g><g transform="translate(21.341346740722656,270 )" id="entity-dbousers-84fcaf37-9a7f-51a9-a83e-8b2a014be92f"><rect height="129" width="131.89584350585938" y="0" x="0" class="er entityBox"></rect><text style="dominant-baseline: middle; text-anchor: middle; font-size: 12px;" transform="translate(65.94792175292969,12)" y="0" x="0" id="text-entity-dbousers-84fcaf37-9a7f-51a9-a83e-8b2a014be92f" class="er entityLabel">dbo.users</text><rect height="21" width="66.15037536621094" y="24" x="0" class="er attributeBoxOdd"></rect><text style="dominant-baseline: middle; font-size: 10.2px;" transform="translate(5,34.5)" y="0" x="0" id="text-entity-dbousers-84fcaf37-9a7f-51a9-a83e-8b2a014be92f-attr-1-type" class="er entityLabel">int</text><rect height="21" width="40.94215393066406" y="24" x="66.15037536621094" class="er attributeBoxOdd"></rect><text style="dominant-baseline: middle; font-size: 10.2px;" transform="translate(71.15037536621094,34.5)" y="0" x="0" id="text-entity-dbousers-84fcaf37-9a7f-51a9-a83e-8b2a014be92f-attr-1-name" class="er entityLabel">id</text><rect height="21" width="24.803314208984375" y="24" x="107.092529296875" class="er attributeBoxOdd"></rect><text style="dominant-baseline: middle; font-size: 10.2px;" transform="translate(112.092529296875,34.5)" y="0" x="0" id="text-entity-dbousers-84fcaf37-9a7f-51a9-a83e-8b2a014be92f-attr-1-comment" class="er entityLabel">PK</text><rect height="21" width="66.15037536621094" y="45" x="0" class="er attributeBoxEven"></rect><text style="dominant-baseline: middle; font-size: 10.2px;" transform="translate(5,55.5)" y="0" x="0" id="text-entity-dbousers-84fcaf37-9a7f-51a9-a83e-8b2a014be92f-attr-2-type" class="er entityLabel">nvarchar(-1)</text><rect height="21" width="40.94215393066406" y="45" x="66.15037536621094" class="er attributeBoxEven"></rect><text style="dominant-baseline: middle; font-size: 10.2px;" transform="translate(71.15037536621094,55.5)" y="0" x="0" id="text-entity-dbousers-84fcaf37-9a7f-51a9-a83e-8b2a014be92f-attr-2-name" class="er entityLabel">name</text><rect height="21" width="24.803314208984375" y="45" x="107.092529296875" class="er attributeBoxEven"></rect><text style="dominant-baseline: middle; font-size: 10.2px;" transform="translate(112.092529296875,55.5)" y="0" x="0" id="text-entity-dbousers-84fcaf37-9a7f-51a9-a83e-8b2a014be92f-attr-2-comment" class="er entityLabel"></text><rect height="21" width="66.15037536621094" y="66" x="0" class="er attributeBoxOdd"></rect><text style="dominant-baseline: middle; font-size: 10.2px;" transform="translate(5,76.5)" y="0" x="0" id="text-entity-dbousers-84fcaf37-9a7f-51a9-a83e-8b2a014be92f-attr-3-type" class="er entityLabel">nvarchar(-1)</text><rect height="21" width="40.94215393066406" y="66" x="66.15037536621094" class="er attributeBoxOdd"></rect><text style="dominant-baseline: middle; font-size: 10.2px;" transform="translate(71.15037536621094,76.5)" y="0" x="0" id="text-entity-dbousers-84fcaf37-9a7f-51a9-a83e-8b2a014be92f-attr-3-name" class="er entityLabel">sname</text><rect height="21" width="24.803314208984375" y="66" x="107.092529296875" class="er attributeBoxOdd"></rect><text style="dominant-baseline: middle; font-size: 10.2px;" transform="translate(112.092529296875,76.5)" y="0" x="0" id="text-entity-dbousers-84fcaf37-9a7f-51a9-a83e-8b2a014be92f-attr-3-comment" class="er entityLabel"></text><rect height="21" width="66.15037536621094" y="87" x="0" class="er attributeBoxEven"></rect><text style="dominant-baseline: middle; font-size: 10.2px;" transform="translate(5,97.5)" y="0" x="0" id="text-entity-dbousers-84fcaf37-9a7f-51a9-a83e-8b2a014be92f-attr-4-type" class="er entityLabel">nvarchar(-1)</text><rect height="21" width="40.94215393066406" y="87" x="66.15037536621094" class="er attributeBoxEven"></rect><text style="dominant-baseline: middle; font-size: 10.2px;" transform="translate(71.15037536621094,97.5)" y="0" x="0" id="text-entity-dbousers-84fcaf37-9a7f-51a9-a83e-8b2a014be92f-attr-4-name" class="er entityLabel">phone</text><rect height="21" width="24.803314208984375" y="87" x="107.092529296875" class="er attributeBoxEven"></rect><text style="dominant-baseline: middle; font-size: 10.2px;" transform="translate(112.092529296875,97.5)" y="0" x="0" id="text-entity-dbousers-84fcaf37-9a7f-51a9-a83e-8b2a014be92f-attr-4-comment" class="er entityLabel"></text><rect height="21" width="66.15037536621094" y="108" x="0" class="er attributeBoxOdd"></rect><text style="dominant-baseline: middle; font-size: 10.2px;" transform="translate(5,118.5)" y="0" x="0" id="text-entity-dbousers-84fcaf37-9a7f-51a9-a83e-8b2a014be92f-attr-5-type" class="er entityLabel">int</text><rect height="21" width="40.94215393066406" y="108" x="66.15037536621094" class="er attributeBoxOdd"></rect><text style="dominant-baseline: middle; font-size: 10.2px;" transform="translate(71.15037536621094,118.5)" y="0" x="0" id="text-entity-dbousers-84fcaf37-9a7f-51a9-a83e-8b2a014be92f-attr-5-name" class="er entityLabel">gid</text><rect height="21" width="24.803314208984375" y="108" x="107.092529296875" class="er attributeBoxOdd"></rect><text style="dominant-baseline: middle; font-size: 10.2px;" transform="translate(112.092529296875,118.5)" y="0" x="0" id="text-entity-dbousers-84fcaf37-9a7f-51a9-a83e-8b2a014be92f-attr-5-comment" class="er entityLabel">FK</text></g><g transform="translate(253.23719024658203,291 )" id="entity-dbotypes-340a49dd-e5bf-5d4b-abea-b268b73af6ca"><rect height="87" width="134.5785369873047" y="0" x="0" class="er entityBox"></rect><text style="dominant-baseline: middle; text-anchor: middle; font-size: 12px;" transform="translate(67.28926849365234,12)" y="0" x="0" id="text-entity-dbotypes-340a49dd-e5bf-5d4b-abea-b268b73af6ca" class="er entityLabel">dbo.types</text><rect height="21" width="66.15037536621094" y="24" x="0" class="er attributeBoxOdd"></rect><text style="dominant-baseline: middle; font-size: 10.2px;" transform="translate(5,34.5)" y="0" x="0" id="text-entity-dbotypes-340a49dd-e5bf-5d4b-abea-b268b73af6ca-attr-1-type" class="er entityLabel">int</text><rect height="21" width="43.624847412109375" y="24" x="66.15037536621094" class="er attributeBoxOdd"></rect><text style="dominant-baseline: middle; font-size: 10.2px;" transform="translate(71.15037536621094,34.5)" y="0" x="0" id="text-entity-dbotypes-340a49dd-e5bf-5d4b-abea-b268b73af6ca-attr-1-name" class="er entityLabel">id</text><rect height="21" width="24.803314208984375" y="24" x="109.77522277832031" class="er attributeBoxOdd"></rect><text style="dominant-baseline: middle; font-size: 10.2px;" transform="translate(114.77522277832031,34.5)" y="0" x="0" id="text-entity-dbotypes-340a49dd-e5bf-5d4b-abea-b268b73af6ca-attr-1-comment" class="er entityLabel">PK</text><rect height="21" width="66.15037536621094" y="45" x="0" class="er attributeBoxEven"></rect><text style="dominant-baseline: middle; font-size: 10.2px;" transform="translate(5,55.5)" y="0" x="0" id="text-entity-dbotypes-340a49dd-e5bf-5d4b-abea-b268b73af6ca-attr-2-type" class="er entityLabel">nvarchar(-1)</text><rect height="21" width="43.624847412109375" y="45" x="66.15037536621094" class="er attributeBoxEven"></rect><text style="dominant-baseline: middle; font-size: 10.2px;" transform="translate(71.15037536621094,55.5)" y="0" x="0" id="text-entity-dbotypes-340a49dd-e5bf-5d4b-abea-b268b73af6ca-attr-2-name" class="er entityLabel">title</text><rect height="21" width="24.803314208984375" y="45" x="109.77522277832031" class="er attributeBoxEven"></rect><text style="dominant-baseline: middle; font-size: 10.2px;" transform="translate(114.77522277832031,55.5)" y="0" x="0" id="text-entity-dbotypes-340a49dd-e5bf-5d4b-abea-b268b73af6ca-attr-2-comment" class="er entityLabel"></text><rect height="21" width="66.15037536621094" y="66" x="0" class="er attributeBoxOdd"></rect><text style="dominant-baseline: middle; font-size: 10.2px;" transform="translate(5,76.5)" y="0" x="0" id="text-entity-dbotypes-340a49dd-e5bf-5d4b-abea-b268b73af6ca-attr-3-type" class="er entityLabel">nvarchar(-1)</text><rect height="21" width="43.624847412109375" y="66" x="66.15037536621094" class="er attributeBoxOdd"></rect><text style="dominant-baseline: middle; font-size: 10.2px;" transform="translate(71.15037536621094,76.5)" y="0" x="0" id="text-entity-dbotypes-340a49dd-e5bf-5d4b-abea-b268b73af6ca-attr-3-name" class="er entityLabel">content</text><rect height="21" width="24.803314208984375" y="66" x="109.77522277832031" class="er attributeBoxOdd"></rect><text style="dominant-baseline: middle; font-size: 10.2px;" transform="translate(114.77522277832031,76.5)" y="0" x="0" id="text-entity-dbotypes-340a49dd-e5bf-5d4b-abea-b268b73af6ca-attr-3-comment" class="er entityLabel"></text></g><g transform="translate(136.90497207641602,20 )" id="entity-dbomessages-3feac812-6123-523d-99ed-2e73bba946b5"><rect height="150" width="134.0057830810547" y="0" x="0" class="er entityBox"></rect><text style="dominant-baseline: middle; text-anchor: middle; font-size: 12px;" transform="translate(67.00289154052734,12)" y="0" x="0" id="text-entity-dbomessages-3feac812-6123-523d-99ed-2e73bba946b5" class="er entityLabel">dbo.messages</text><rect height="21" width="66.15037536621094" y="24" x="0" class="er attributeBoxOdd"></rect><text style="dominant-baseline: middle; font-size: 10.2px;" transform="translate(5,34.5)" y="0" x="0" id="text-entity-dbomessages-3feac812-6123-523d-99ed-2e73bba946b5-attr-1-type" class="er entityLabel">int</text><rect height="21" width="43.624847412109375" y="24" x="66.15037536621094" class="er attributeBoxOdd"></rect><text style="dominant-baseline: middle; font-size: 10.2px;" transform="translate(71.15037536621094,34.5)" y="0" x="0" id="text-entity-dbomessages-3feac812-6123-523d-99ed-2e73bba946b5-attr-1-name" class="er entityLabel">id</text><rect height="21" width="24.230560302734375" y="24" x="109.77522277832031" class="er attributeBoxOdd"></rect><text style="dominant-baseline: middle; font-size: 10.2px;" transform="translate(114.77522277832031,34.5)" y="0" x="0" id="text-entity-dbomessages-3feac812-6123-523d-99ed-2e73bba946b5-attr-1-comment" class="er entityLabel"></text><rect height="21" width="66.15037536621094" y="45" x="0" class="er attributeBoxEven"></rect><text style="dominant-baseline: middle; font-size: 10.2px;" transform="translate(5,55.5)" y="0" x="0" id="text-entity-dbomessages-3feac812-6123-523d-99ed-2e73bba946b5-attr-2-type" class="er entityLabel">int</text><rect height="21" width="43.624847412109375" y="45" x="66.15037536621094" class="er attributeBoxEven"></rect><text style="dominant-baseline: middle; font-size: 10.2px;" transform="translate(71.15037536621094,55.5)" y="0" x="0" id="text-entity-dbomessages-3feac812-6123-523d-99ed-2e73bba946b5-attr-2-name" class="er entityLabel">uid</text><rect height="21" width="24.230560302734375" y="45" x="109.77522277832031" class="er attributeBoxEven"></rect><text style="dominant-baseline: middle; font-size: 10.2px;" transform="translate(114.77522277832031,55.5)" y="0" x="0" id="text-entity-dbomessages-3feac812-6123-523d-99ed-2e73bba946b5-attr-2-comment" class="er entityLabel">FK</text><rect height="21" width="66.15037536621094" y="66" x="0" class="er attributeBoxOdd"></rect><text style="dominant-baseline: middle; font-size: 10.2px;" transform="translate(5,76.5)" y="0" x="0" id="text-entity-dbomessages-3feac812-6123-523d-99ed-2e73bba946b5-attr-3-type" class="er entityLabel">int</text><rect height="21" width="43.624847412109375" y="66" x="66.15037536621094" class="er attributeBoxOdd"></rect><text style="dominant-baseline: middle; font-size: 10.2px;" transform="translate(71.15037536621094,76.5)" y="0" x="0" id="text-entity-dbomessages-3feac812-6123-523d-99ed-2e73bba946b5-attr-3-name" class="er entityLabel">tid</text><rect height="21" width="24.230560302734375" y="66" x="109.77522277832031" class="er attributeBoxOdd"></rect><text style="dominant-baseline: middle; font-size: 10.2px;" transform="translate(114.77522277832031,76.5)" y="0" x="0" id="text-entity-dbomessages-3feac812-6123-523d-99ed-2e73bba946b5-attr-3-comment" class="er entityLabel">FK</text><rect height="21" width="66.15037536621094" y="87" x="0" class="er attributeBoxEven"></rect><text style="dominant-baseline: middle; font-size: 10.2px;" transform="translate(5,97.5)" y="0" x="0" id="text-entity-dbomessages-3feac812-6123-523d-99ed-2e73bba946b5-attr-4-type" class="er entityLabel">nvarchar(-1)</text><rect height="21" width="43.624847412109375" y="87" x="66.15037536621094" class="er attributeBoxEven"></rect><text style="dominant-baseline: middle; font-size: 10.2px;" transform="translate(71.15037536621094,97.5)" y="0" x="0" id="text-entity-dbomessages-3feac812-6123-523d-99ed-2e73bba946b5-attr-4-name" class="er entityLabel">title</text><rect height="21" width="24.230560302734375" y="87" x="109.77522277832031" class="er attributeBoxEven"></rect><text style="dominant-baseline: middle; font-size: 10.2px;" transform="translate(114.77522277832031,97.5)" y="0" x="0" id="text-entity-dbomessages-3feac812-6123-523d-99ed-2e73bba946b5-attr-4-comment" class="er entityLabel"></text><rect height="21" width="66.15037536621094" y="108" x="0" class="er attributeBoxOdd"></rect><text style="dominant-baseline: middle; font-size: 10.2px;" transform="translate(5,118.5)" y="0" x="0" id="text-entity-dbomessages-3feac812-6123-523d-99ed-2e73bba946b5-attr-5-type" class="er entityLabel">nvarchar(-1)</text><rect height="21" width="43.624847412109375" y="108" x="66.15037536621094" class="er attributeBoxOdd"></rect><text style="dominant-baseline: middle; font-size: 10.2px;" transform="translate(71.15037536621094,118.5)" y="0" x="0" id="text-entity-dbomessages-3feac812-6123-523d-99ed-2e73bba946b5-attr-5-name" class="er entityLabel">content</text><rect height="21" width="24.230560302734375" y="108" x="109.77522277832031" class="er attributeBoxOdd"></rect><text style="dominant-baseline: middle; font-size: 10.2px;" transform="translate(114.77522277832031,118.5)" y="0" x="0" id="text-entity-dbomessages-3feac812-6123-523d-99ed-2e73bba946b5-attr-5-comment" class="er entityLabel"></text><rect height="21" width="66.15037536621094" y="129" x="0" class="er attributeBoxEven"></rect><text style="dominant-baseline: middle; font-size: 10.2px;" transform="translate(5,139.5)" y="0" x="0" id="text-entity-dbomessages-3feac812-6123-523d-99ed-2e73bba946b5-attr-6-type" class="er entityLabel">nvarchar(-1)</text><rect height="21" width="43.624847412109375" y="129" x="66.15037536621094" class="er attributeBoxEven"></rect><text style="dominant-baseline: middle; font-size: 10.2px;" transform="translate(71.15037536621094,139.5)" y="0" x="0" id="text-entity-dbomessages-3feac812-6123-523d-99ed-2e73bba946b5-attr-6-name" class="er entityLabel">time</text><rect height="21" width="24.230560302734375" y="129" x="109.77522277832031" class="er attributeBoxEven"></rect><text style="dominant-baseline: middle; font-size: 10.2px;" transform="translate(114.77522277832031,139.5)" y="0" x="0" id="text-entity-dbomessages-3feac812-6123-523d-99ed-2e73bba946b5-attr-6-comment" class="er entityLabel"></text></g><rect height="14" width="9.666015625" y="442" x="82.45599365234375" class="er relationshipLabelBox"></rect><text style="text-anchor: middle; dominant-baseline: middle; font-size: 12px;" y="449" x="87.28900146484375" id="rel1" class="er relationshipLabel">id</text><rect height="14" width="9.666015625" y="205.660400390625" x="94.39099884033203" class="er relationshipLabelBox"></rect><text style="text-anchor: middle; dominant-baseline: middle; font-size: 12px;" y="212.660400390625" x="99.22400665283203" id="rel2" class="er relationshipLabel">id</text><rect height="14" width="9.666015625" y="215.42288208007812" x="307.2030334472656" class="er relationshipLabelBox"></rect><text style="text-anchor: middle; dominant-baseline: middle; font-size: 12px;" y="222.42288208007812" x="312.0360412597656" id="rel3" class="er relationshipLabel">id</text></svg>